/* XPM */
static char *griffith[] = {
/* columns rows colors chars-per-pixel */
"32 32 209 2",
"   c #000000",
".  c #02040A",
"X  c #0C0C0C",
"o  c #030711",
"O  c #050A17",
"+  c #030C19",
"@  c #0D0E11",
"#  c #0D0F1B",
"$  c #0C111C",
"%  c #151515",
"&  c #14161C",
"*  c #181817",
"=  c #1B1B1C",
"-  c #030F22",
";  c #040D2B",
":  c #090F24",
">  c #080F2C",
",  c #010E32",
"<  c #061023",
"1  c #04122A",
"2  c #0D1223",
"3  c #0E142E",
"4  c #0D182B",
"5  c #041435",
"6  c #03143C",
"7  c #05193B",
"8  c #081733",
"9  c #0C1F3D",
"0  c #111423",
"q  c #111824",
"w  c #1A1D22",
"e  c #191F29",
"r  c #141C33",
"t  c #1E2227",
"y  c #172233",
"u  c #16243A",
"i  c #1D2237",
"p  c #1C273B",
"a  c #222223",
"s  c #21242B",
"d  c #272A2F",
"f  c #2A2A2B",
"g  c #232636",
"h  c #23273A",
"j  c #262936",
"k  c #262A3D",
"l  c #2A2C38",
"z  c #2D323A",
"x  c #333333",
"c  c #31333C",
"v  c #373B38",
"b  c #393C37",
"n  c #3B3B3B",
"m  c #031641",
"M  c #051A45",
"N  c #051D4A",
"B  c #091E46",
"V  c #021D53",
"C  c #0C234A",
"Z  c #062153",
"A  c #052458",
"S  c #092454",
"D  c #0D2856",
"F  c #0A295C",
"G  c #142545",
"H  c #13244A",
"J  c #152B4C",
"K  c #132B54",
"L  c #112D5B",
"P  c #1D2D52",
"I  c #17315D",
"U  c #1F3055",
"Y  c #072760",
"T  c #072C69",
"R  c #0A2C63",
"E  c #092E6A",
"W  c #0C326D",
"Q  c #0C3573",
"!  c #103165",
"~  c #1D3660",
"^  c #262A42",
"/  c #282D42",
"(  c #2C3444",
")  c #2C364C",
"_  c #223152",
"`  c #2C3C5C",
"'  c #313444",
"]  c #343A42",
"[  c #34384E",
"{  c #3F3F44",
"}  c #3B3D4A",
"|  c #353B51",
" . c #303D5D",
".. c #273E65",
"X. c #2F3F61",
"o. c #364044",
"O. c #33414B",
"+. c #3C4143",
"@. c #3E434E",
"#. c #3F445B",
"$. c #2E4367",
"%. c #374465",
"&. c #304569",
"*. c #3A4563",
"=. c #3E516F",
"-. c #44432C",
";. c #41403F",
":. c #50482F",
">. c #56502E",
",. c #565230",
"<. c #5A533A",
"1. c #655628",
"2. c #60582A",
"3. c #6A5B21",
"4. c #79631B",
"5. c #434343",
"6. c #44464B",
"7. c #4C4C4C",
"8. c #444651",
"9. c #414559",
"0. c #4B4D56",
"q. c #4A515D",
"w. c #545454",
"e. c #52545D",
"r. c #5C5C5B",
"t. c #414A66",
"y. c #484C60",
"u. c #4F5367",
"i. c #4C546C",
"p. c #465671",
"a. c #53576A",
"s. c #525861",
"d. c #535B6B",
"f. c #5F5F61",
"g. c #535B71",
"h. c #595E73",
"j. c #5C6075",
"k. c #5F6378",
"l. c #5C687D",
"z. c #60605F",
"x. c #776E5A",
"c. c #7F7456",
"v. c #7A715B",
"b. c #646363",
"n. c #696662",
"m. c #6B6B6B",
"M. c #606376",
"N. c #636779",
"B. c #656A7B",
"V. c #6A6D7E",
"C. c #727273",
"Z. c #7B7B7A",
"A. c #6E7181",
"S. c #717484",
"D. c #767B83",
"F. c #7C838E",
"G. c #896F17",
"H. c #897118",
"J. c #9C7E1C",
"K. c #967D24",
"L. c #A78212",
"P. c #A1811A",
"I. c #AE8B17",
"U. c #AB8A1D",
"Y. c #B48B0E",
"T. c #B88E0C",
"R. c #B18E1B",
"E. c #BB900C",
"W. c #B69015",
"Q. c #B99317",
"!. c #A38833",
"~. c #B69328",
"^. c #B39232",
"/. c #C6980F",
"(. c #CD9D0C",
"). c #C49911",
"_. c #D4A30D",
"`. c #D2A313",
"'. c #D3A519",
"]. c #D9A713",
"[. c #DEAB10",
"{. c #E1AA04",
"}. c #E0AE0B",
"|. c #E9B103",
" X c #838382",
".X c #81858D",
"XX c #8C8C8B",
"oX c #949494",
"OX c #9B9997",
"+X c #9C9C9D",
"@X c #A2A2A2",
"#X c #A8A7A5",
"$X c #AAA9A7",
"%X c #ABABAB",
"&X c #B5B0A7",
"*X c #B9B5AF",
"=X c #B3B3B3",
"-X c #BFBAB0",
";X c #BBBBBA",
":X c #C0BFBF",
">X c #C2C2C2",
",X c #CECECE",
"<X c #D4D4D4",
"1X c #DEDEDE",
"2X c #E1E1E1",
"3X c #ECECEC",
"4X c #F3F3F3",
"5X c #FBFBFB",
"6X c None",
/* pixels */
"6X6X6X6X6X6X6X6X6X6X6X6X6X6X6X6X6X6X    .     6X6X6X6X6X6X6X6X6X",
"6X6X6X6X6X6X6X6X6X6X6X6X6X6X  . + 1 5 q. Xb.= 6X6X6X6X6X6X6X6X6X",
"6X6X6X6X6X6X6X6X6X    o - 1 7 M N N B g.;X3Xm.  6X6X6X6X6X6X6X6X",
"6X6X6X6X6X  . + 1 5 7 M N N B m 5 ; ; u.XX=Xr.  6X6X6X6X6X6X6X6X",
"6X6X6X6XX 7.C.` N N m 6 , ; ; 8 i ( 0.m.m.>X%X* 6X6X6X6X6X6X6X6X",
"6X6X6X  7.>X;Xa., ; > r k } 0.f.b.b.r.w.w.OX X& 6X6X6X6X6X6X6X6X",
"6X6X6X  m.1X%XC.0.8.e.z.b.z.r.7.5.n l g x b.;X7.  6X6X6X6X6X6X6X",
"6X6X6X6Xv oX@Xm.b.r.w.7.{ c h g ^ | y.| 0 7.%Xn   6X6X6X6X6X6X6X",
"6X6X6X6X= %X<Xr.6.c g h ( 9.a.N.A.S.S.A.h X m.m.X 6X6X6X6X6X6X6X",
"6X6X6X6X  7. X7.s ^ h.V.S.S.S.A.V.V.N.N.[ @ $XoXX 6X6X6X6X6X6X6X",
"6X6X6X6X  w.2XZ.# u.S.V.V.B.N.N.h.h.h.h.*.o x b.f   6X6X6X6X6X6X",
"6X6X6X6X6X= r.n . 9.N.M.h.h.m.v.c.x.f.a.t.: r.1Xw.  6X6X6X6X6X6X",
"6X6X6X6X6X  XX;X* / h.g.n.^.].(././.`.~.w.r & r.n . 6X6X6X6X6X6X",
"6X6X6X6X6X  w.m.@ r i.f.'.(.1.5.8.6.<.K.<.G & :X%X* 6X6X6X6X6X6X",
"6X6X6X6X6X  v ;Xr.# *.!.{.:. .%. .P H H G J & 7.w.* 6X6X6X6X6X6X",
"6X6X6X6X6X  n OX5.O | '.E.)  ._ B m m M M B < r.<Xr.  6X6X6X6X6X",
"6X6X6X6X6X6XX m.XX& ( ].L._ K M n J.P.P.>.N 5 v Z.x   6X6X6X6X6X",
"6X6X6X6X6X6X@ XX@X& u `.Y.H N N ( 3.4.|.G.Z C = @XoX= 6X6X6X6X6X",
"6X6X6X6X6X6X  f Z.v 8 P.[.z Z Z Z V J _.H.Z S t XXm.% 6X6X6X6X6X",
"6X6X6X6X6X6X  r.<Xf.1 ] _.Y.o.D D K O.}.H.A Y 4 7.@X7.  6X6X6X6X",
"6X6X6X6X6X6X6X* w.w.q S +.R._.Q.U.R.).T.-.F R 9 r.;X5.  6X6X6X6X",
"6X6X6X6X6X6X6X* %X>Xt S Y D o.,.2.>.v J Y E W D a Z.n.& 6X6X6X6X",
"6X6X6X6X6X6X6X@ +.b.a C Y R T T T T E Q Q Q Q R j :XOX= 6X6X6X6X",
"6X6X6X6X6X6X6X  r.2Xb.9 W W W Q Q W Q Q Q Q W G * 7.m.x 6X6X6X6X",
"6X6X6X6X6X6X6X  x C.;.r W Q Q Q Q Q W L J u t = * Z.1Xr.  6X6X6X",
"6X6X6X6X6X6X6X6Xa +X=Xs K W ! K G i w w = = = * * x m.5.* 6X6X6X",
"6X6X6X6X5X5X5X6Xa C.Z.a = t w = = = * = & 2 : ; 4 x ,X$Xa 6X6X6X",
"6X6X6X6X6X4X3X5Xm.w.=Xw.= = & & & $ : ; , 6 m M B s b.b.= 6X6X6X",
"6X6X6X6X6X5X2X2X;Xb.%Xw.* 2 ; , 5 6 m N N S L ~ &.s.r.x 6X6X6X6X",
"6X6X6X6X6X6X5X<X,X7.Z. Xs 7 M N Z D L ..=.l.F.+X$X%X%X$X6X6X6X6X",
"6X6X6X6X6X6X6X6X<Xm.$X#Xd K ~ $.i.B..X+X#X$X$X#X@X@X@X@X6X6X6X6X",
"6X6X6X6X6X6X6X6X6XZ.7.b ;.d.Z.OX&X:X=X#XoX6X6X6X6X6X6X6X6X6X6X6X"
};
